<?xml version="1.0" encoding="utf-8"?>
<!-- Generator: Adobe Illustrator 25.0.0, SVG Export Plug-In . SVG Version: 6.00 Build 0)  -->
<svg version="1.1" id="Layer_1" xmlns="http://www.w3.org/2000/svg" xmlns:xlink="http://www.w3.org/1999/xlink" x="0px" y="0px"
	 viewBox="0 0 69.2 69.8" style="enable-background:new 0 0 69.2 69.8;" xml:space="preserve">
<style type="text/css">
	.st0{fill:#1D1D1B;stroke:#1D1D1B;stroke-width:3;stroke-miterlimit:10;}
	.st1{fill:none;stroke:#FFFFFF;stroke-width:3;stroke-linecap:round;stroke-linejoin:round;}
</style>
<path class="st0" d="M11.7,6.6l5.2,3.1l4.6-2.3c6.5-3.2,19.2-3.2,25.8,0l4.6,2.3l5.2-3.1c8.3-4.8,8.8-4.1,6.2,6.7
	c-1.5,5.7-1.4,6.4,0.6,12.6c3.7,11.6,1.1,21-8.2,30.1c-2.4,2.4-6.7,5.6-9.7,7.1c-10.5,5.8-22.1,3.3-32.7-7.1C3.9,47,1.3,37.5,5,26
	c2-6.2,2.1-6.9,0.6-12.6C2.9,2.5,3.4,1.8,11.7,6.6z"/>
<polyline class="st1" points="22.1,42.6 15.2,35.6 22.1,28.7 "/>
<polyline class="st1" points="47.4,28.7 54.3,35.6 47.4,42.6 "/>
<line class="st1" x1="29" y1="44.8" x2="41.8" y2="26.6"/>
</svg>
