<svg id="Layer_1" data-name="Layer 1" xmlns="http://www.w3.org/2000/svg" viewBox="0 0 65.06 65.5"><path d="M11.73,6.6l5.18,3.1L21.5,7.42c6.55-3.2,19.25-3.2,25.8,0L51.89,9.7l5.18-3.1c8.31-4.77,8.79-4.14,6.16,6.72-1.47,5.7-1.37,6.42.58,12.63,3.71,11.59,1.08,21-8.21,30.12a50.41,50.41,0,0,1-9.67,7.14C35.48,69,23.85,66.52,13.2,56.07,3.92,47,1.28,37.54,5,26,7,19.74,7,19,5.58,13.32,2.94,2.46,3.43,1.83,11.73,6.6Z" transform="translate(-1.87 -2.27)" style="fill:#1d1d1b;stroke:#1d1d1b;stroke-miterlimit:10;stroke-width:3px"/><polyline points="20.25 40.31 13.3 33.36 20.25 26.4" style="fill:none;stroke:#fff;stroke-linecap:round;stroke-linejoin:round;stroke-width:3px"/><polyline points="45.5 26.4 52.46 33.36 45.5 40.31" style="fill:none;stroke:#fff;stroke-linecap:round;stroke-linejoin:round;stroke-width:3px"/><line x1="27.15" y1="42.57" x2="39.94" y2="24.35" style="fill:none;stroke:#fff;stroke-linecap:round;stroke-linejoin:round;stroke-width:3px"/></svg>