<?xml version="1.0" encoding="utf-8"?>
<!-- Generator: Adobe Illustrator 25.0.0, SVG Export Plug-In . SVG Version: 6.00 Build 0)  -->
<svg version="1.1" id="Layer_1" xmlns="http://www.w3.org/2000/svg" xmlns:xlink="http://www.w3.org/1999/xlink" x="0px" y="0px"
	 viewBox="0 0 551 550" style="enable-background:new 0 0 551 550;" xml:space="preserve">
<style type="text/css">
	.st0{fill:#0769B1;}
	.st1{fill:#E8412D;}
	.st2{fill:#8ABD24;}
	.st3{fill:#F7AE00;}
	.st4{fill:#FFFFFF;}
</style>
<path class="st0" d="M332,86v13h72V73h-72V86z"/>
<path class="st0" d="M303.6,104.7l-14.9,0.4l0.7,78.2c0.4,43,0.8,78.3,1,78.4s35.4-0.1,78.4-0.4l78.2-0.6V104l-64.2,0.2
	C347.4,104.3,311.8,104.6,303.6,104.7z"/>
<path class="st1" d="M104.3,150.2c0.4,24.8,0.7,60.1,0.7,78.5V262h157v-44.8c0-24.6-0.3-59.9-0.7-78.5l-0.6-33.7h-157L104.3,150.2z"
	/>
<path class="st1" d="M73.4,152.6c0.3,2.6,0.6,18.6,0.6,35.5V219h25v-71H72.7L73.4,152.6z"/>
<path class="st2" d="M465.4,330.2h-13v72h26v-72H465.4z"/>
<path class="st2" d="M431.8,442.3l14.9-0.4l-0.7-78.2c-0.4-43-0.8-78.3-1-78.4s-35.4,0.1-78.4,0.4l-78.2,0.6V443l64.2-0.2
	C388,442.7,423.5,442.4,431.8,442.3z"/>
<path class="st3" d="M150.6,444.4c24.8-0.4,60.1-0.7,78.5-0.7h33.3v-157h-44.8c-24.6,0-59.9,0.3-78.5,0.7l-33.7,0.6v157L150.6,444.4
	z"/>
<path class="st3" d="M153,475.3c2.6-0.3,18.6-0.6,35.5-0.6h30.9v-25h-71V476L153,475.3z"/>
<rect x="339" y="175" class="st4" width="57" height="12"/>
<circle class="st4" cx="368.1" cy="337.9" r="7.6"/>
<circle class="st4" cx="368.1" cy="383.2" r="7.6"/>
<rect x="339" y="354.2" class="st4" width="57" height="12"/>
<rect x="176" y="150" class="st4" width="13" height="63"/>
<rect x="153" y="175" class="st4" width="60.1" height="12"/>
<rect x="151.2" y="359.2" transform="matrix(0.7071 -0.7071 0.7071 0.7071 -205.0544 236.2622)" class="st4" width="63" height="13"/>
<rect x="177.4" y="335.6" transform="matrix(0.7071 -0.7071 0.7071 0.7071 -204.8615 236.7912)" class="st4" width="12" height="60.1"/>
</svg>
