<svg id="Layer_1" data-name="Layer 1" xmlns="http://www.w3.org/2000/svg" viewBox="0 0 551 550"><path d="M332,86V99h72V73H332Z" style="fill:#0769b1"/><path d="M303.6,104.7l-14.9.4.7,78.2c.4,43,.8,78.3,1,78.4s35.4-.1,78.4-.4l78.2-.6V104l-64.2.2C347.4,104.3,311.8,104.6,303.6,104.7Z" style="fill:#0769b1"/><rect x="339" y="175" width="57" height="12" style="fill:#fff"/><path d="M104.3,150.2c.4,24.8.7,60.1.7,78.5V262H262V217.2c0-24.6-.3-59.9-.7-78.5l-.6-33.7h-157Z" style="fill:#e8412d"/><path d="M73.4,152.6c.3,2.6.6,18.6.6,35.5V219H99V148H72.7Z" style="fill:#e8412d"/><path d="M403.35,461V448h-72v26h72Z" style="fill:#8abd24"/><path d="M431.75,442.3l14.9-.4-.7-78.2c-.4-43-.8-78.3-1-78.4s-35.4.1-78.4.4l-78.2.6V443l64.2-.2C388,442.7,423.55,442.4,431.75,442.3Z" style="fill:#8abd24"/><circle cx="368.15" cy="337.89" r="7.58" style="fill:#fff"/><circle cx="368.15" cy="383.2" r="7.58" style="fill:#fff"/><rect x="339" y="354.25" width="57" height="12" style="fill:#fff"/><path d="M150.55,444.4c24.8-.4,60.1-.7,78.5-.7h33.3v-157h-44.8c-24.6,0-59.9.3-78.5.7l-33.7.6V445Z" style="fill:#f7ae00"/><path d="M153,475.3c2.6-.3,18.6-.6,35.5-.6h30.9v-25h-71V476Z" style="fill:#f7ae00"/><rect x="176" y="150" width="13" height="63" style="fill:#fff"/><rect x="153" y="175" width="60.1" height="12" style="fill:#fff"/><rect x="176.16" y="334.15" width="13" height="63" transform="translate(312.06 -22.06) rotate(45)" style="fill:#fff"/><rect x="153.35" y="359.69" width="60.1" height="12" transform="translate(312.3 -22.58) rotate(45)" style="fill:#fff"/></svg>