<svg xmlns="http://www.w3.org/2000/svg" xmlns:xlink="http://www.w3.org/1999/xlink" viewBox="0 0 85.61 57.04"><defs><style>.cls-1{isolation:isolate;}.cls-2{fill:url(#linear-gradient);}.cls-3{fill:url(#linear-gradient-2);}.cls-4{fill:#3f3f3f;}.cls-5{fill:#282828;}.cls-6{fill:#475e7f;}.cls-7{fill:#515151;}.cls-8{fill:#474747;}.cls-9{fill:#1a300e;}.cls-10{fill:#2b4f17;}.cls-11{fill:#ace042;}.cls-12{fill:#cfcfcf;}.cls-13{fill:#fff;}.cls-14{fill:url(#linear-gradient-3);}.cls-15{mix-blend-mode:multiply;}.cls-16{fill:#fcfbf9;}.cls-17{fill:#f9f7f4;}.cls-18{fill:#f6f3ee;}.cls-19{fill:#f3efe9;}.cls-20{fill:#f0ebe3;}.cls-21{fill:#eee6de;}.cls-22{fill:#ebe2d8;}.cls-23{fill:#e8ded3;}.cls-24{fill:#e5dacd;}.cls-25{fill:#e2d6c8;}.cls-26{fill:#dfd2c2;}.cls-27{fill:url(#linear-gradient-4);}.cls-28{fill:#427a23;}.cls-29{fill:#284a15;}.cls-30{fill:#c61aba;}.cls-31{fill:#a1a1a1;}</style><linearGradient id="linear-gradient" x1="-182.3" y1="14.77" x2="-182.3" y2="20.84" gradientTransform="matrix(-1, 0, 0, 1, -106.31, 0)" gradientUnits="userSpaceOnUse"><stop offset="0" stop-color="#7fd103"/><stop offset="1" stop-color="#73b80c"/></linearGradient><linearGradient id="linear-gradient-2" x1="-190.98" y1="14.77" x2="-190.98" y2="20.84" gradientTransform="translate(202.32)" xlink:href="#linear-gradient"/><linearGradient id="linear-gradient-3" x1="70.54" y1="34.18" x2="80.44" y2="34.18" gradientUnits="userSpaceOnUse"><stop offset="0" stop-color="#db2a24"/><stop offset="1" stop-color="#a10600"/></linearGradient><linearGradient id="linear-gradient-4" x1="79.23" y1="34.18" x2="89.12" y2="34.18" gradientTransform="matrix(-1, 0, 0, 1, 95.79, 0)" xlink:href="#linear-gradient-3"/></defs><g class="cls-1"><g id="Layer_1" data-name="Layer 1"><path class="cls-2" d="M73,17.6s-.57-3.77,3.2-2.83,5.47,3.21,4.9,4.9-8.13.95-8.13.95L70.75,17.7Z"/><path d="M76.5,20.28c-1.42,0-2.75-.1-3.25-.14l-1.52-2,1.86-.09-.08-.54a2.87,2.87,0,0,1,.42-2,1.48,1.48,0,0,1,1.19-.46,4.12,4.12,0,0,1,1,.14A6.67,6.67,0,0,1,80.44,18a1.94,1.94,0,0,1,.21,1.55S80.35,20.28,76.5,20.28Z"/><path class="cls-3" d="M14.31,17.6s.57-3.77-3.21-2.83S5.64,18,6.2,19.67s8.14.95,8.14.95l2.23-2.92Z"/><path d="M10.83,20.28c1.41,0,2.74-.1,3.25-.14l1.52-2-1.86-.09.07-.54a2.79,2.79,0,0,0-.41-2,1.48,1.48,0,0,0-1.19-.46,4.12,4.12,0,0,0-1,.14A6.67,6.67,0,0,0,6.89,18a1.9,1.9,0,0,0-.21,1.55S7,20.28,10.83,20.28Z"/><path class="cls-4" d="M66.91,7.76C66.91,10.09,56.5,12,43.66,12S20.42,10.09,20.42,7.76,30.83,3.54,43.66,3.54,66.91,5.43,66.91,7.76Z"/><path class="cls-5" d="M80.49,25.78c-.61-.92-4.64-4.33-5.1-5.32C75.39,20.46,71.62,6,63,6H24.32C15.69,6,11.91,20.46,11.91,20.46h0c-.45,1-4.48,4.4-5.09,5.32-2.32,3.46-2.18,10-2.18,10v7.67a2,2,0,0,0,2,2l37-.2,37,.2a2,2,0,0,0,2-2V35.74S82.81,29.24,80.49,25.78Z"/><polygon class="cls-6" points="69.55 45.31 17.97 45.31 21.77 31.07 65.74 31.07 69.55 45.31"/><path class="cls-7" d="M4.66,38.66l9.7-13,5.57-3.35L19.82,7.44c-5.46,3.66-7.91,13-7.91,13h0c-.45,1-4.48,4.4-5.09,5.32-2.32,3.46-2.18,10-2.18,10v2.92Z"/><path class="cls-4" d="M82.66,38.66,73,25.7,67.4,22.35l.11-14.91c5.46,3.66,7.91,13,7.91,13h0c.46,1,4.49,4.4,5.1,5.32,2.32,3.46,2.17,10,2.17,10v2.92Z"/><path class="cls-5" d="M67.15,35.68,59.51,40h-32l-7.65-4.34H4.61c0,2.71.07,10.44.07,10.44a6.3,6.3,0,0,0,6.49,6.1h65.1a6.31,6.31,0,0,0,6.49-6.1c0-3.37,0-7.83,0-10.44Z"/><path class="cls-8" d="M4.69,46.31a6.31,6.31,0,0,0,6.48,5.91h65.1a6.31,6.31,0,0,0,6.48-5.91Z"/><polygon class="cls-9" points="33.27 48.1 10.47 48.1 10.75 43.52 32.12 43.52 33.27 48.1"/><rect class="cls-10" x="11.03" y="43.52" width="0.38" height="2.29"/><rect class="cls-10" x="12.3" y="43.52" width="0.38" height="2.29"/><rect class="cls-10" x="13.57" y="43.52" width="0.38" height="2.29"/><rect class="cls-10" x="14.84" y="43.52" width="0.38" height="2.29"/><rect class="cls-10" x="16.11" y="43.52" width="0.38" height="2.29"/><rect class="cls-10" x="17.39" y="43.52" width="0.38" height="2.29"/><rect class="cls-10" x="18.66" y="43.52" width="0.38" height="2.29"/><rect class="cls-10" x="19.93" y="43.52" width="0.38" height="2.29"/><rect class="cls-10" x="21.2" y="43.52" width="0.38" height="2.29"/><rect class="cls-10" x="22.47" y="43.52" width="0.38" height="2.29"/><rect class="cls-10" x="23.74" y="43.52" width="0.38" height="2.29"/><rect class="cls-10" x="25.01" y="43.52" width="0.38" height="2.29"/><rect class="cls-10" x="26.28" y="43.52" width="0.38" height="2.29"/><rect class="cls-10" x="27.55" y="43.52" width="0.38" height="2.29"/><rect class="cls-10" x="28.83" y="43.52" width="0.38" height="2.29"/><rect class="cls-10" x="30.1" y="43.52" width="0.38" height="2.29"/><rect class="cls-10" x="31.37" y="43.52" width="0.38" height="2.29"/><polygon class="cls-11" points="32.14 43.52 10.76 43.52 11.35 43.02 31.56 43.02 32.14 43.52"/><polygon class="cls-9" points="54.05 48.1 76.57 48.1 76.58 43.52 55.21 43.52 54.05 48.1"/><rect class="cls-10" x="75.92" y="43.52" width="0.38" height="2.29"/><rect class="cls-10" x="74.64" y="43.52" width="0.38" height="2.29"/><rect class="cls-10" x="73.37" y="43.52" width="0.38" height="2.29"/><rect class="cls-10" x="72.1" y="43.52" width="0.38" height="2.29"/><rect class="cls-10" x="70.83" y="43.52" width="0.38" height="2.29"/><rect class="cls-10" x="69.56" y="43.52" width="0.38" height="2.29"/><rect class="cls-10" x="68.29" y="43.52" width="0.38" height="2.29"/><rect class="cls-10" x="67.02" y="43.52" width="0.38" height="2.29"/><rect class="cls-10" x="65.75" y="43.52" width="0.38" height="2.29"/><rect class="cls-10" x="64.48" y="43.52" width="0.38" height="2.29"/><rect class="cls-10" x="63.2" y="43.52" width="0.38" height="2.29"/><rect class="cls-10" x="61.93" y="43.52" width="0.38" height="2.29"/><rect class="cls-10" x="60.66" y="43.52" width="0.38" height="2.29"/><rect class="cls-10" x="59.39" y="43.52" width="0.38" height="2.29"/><rect class="cls-10" x="58.12" y="43.52" width="0.38" height="2.29"/><rect class="cls-10" x="56.85" y="43.52" width="0.38" height="2.29"/><rect class="cls-10" x="55.58" y="43.52" width="0.38" height="2.29"/><polygon class="cls-11" points="55.19 43.52 76.57 43.52 75.98 43.02 55.77 43.02 55.19 43.52"/><rect class="cls-12" x="33.22" y="35.68" width="21.08" height="4.74"/><rect class="cls-11" x="33.22" y="40.02" width="21.08" height="0.41"/><polygon class="cls-13" points="70.04 36.18 70.04 32.18 78.44 32.18 81.44 36.18 70.04 36.18"/><polygon class="cls-14" points="70.54 35.68 80.44 35.68 78.19 32.68 70.54 32.68 70.54 35.68"/><g class="cls-15"><path class="cls-13" d="M75.93,34.51c-.06-.28.17-1,.63-.75s.9-.15,1.12-.25.47.4.25.94S76.36,36.46,75.93,34.51Z"/><path class="cls-16" d="M76,34.49c-.06-.25.16-.91.59-.69s.83-.14,1-.23.44.37.23.87S76.4,36.3,76,34.49Z"/><path class="cls-17" d="M76.07,34.48c0-.23.15-.84.55-.64s.76-.13.94-.2.41.33.22.8S76.44,36.15,76.07,34.48Z"/><path class="cls-18" d="M76.15,34.47c-.05-.21.13-.77.49-.58s.7-.12.87-.19.37.3.2.73S76.48,36,76.15,34.47Z"/><path class="cls-19" d="M76.22,34.46c0-.2.12-.7.45-.53s.63-.11.78-.17.34.27.18.66S76.53,35.83,76.22,34.46Z"/><path class="cls-20" d="M76.29,34.44c0-.17.11-.62.41-.47s.56-.09.7-.15.3.25.16.59S76.57,35.68,76.29,34.44Z"/><path class="cls-21" d="M76.37,34.43c0-.15.09-.55.35-.42s.5-.08.62-.13.27.22.14.52S76.61,35.52,76.37,34.43Z"/><path class="cls-22" d="M76.44,34.42c0-.13.09-.48.31-.36s.43-.08.54-.12.23.19.12.45S76.65,35.36,76.44,34.42Z"/><path class="cls-23" d="M76.52,34.41c0-.12.07-.41.26-.31s.36-.06.45-.1.2.16.11.38S76.69,35.21,76.52,34.41Z"/><path class="cls-24" d="M76.59,34.39c0-.09.06-.33.21-.25s.3,0,.38-.08.16.13.08.32S76.73,35.05,76.59,34.39Z"/><path class="cls-25" d="M76.66,34.38c0-.07,0-.26.17-.2s.24,0,.29-.06.13.1.07.25S76.77,34.89,76.66,34.38Z"/><path class="cls-26" d="M76.74,34.37s0-.19.12-.14.17,0,.21,0,.09.07.05.18S76.82,34.74,76.74,34.37Z"/></g><g class="cls-15"><path class="cls-13" d="M74.86,34.08a2,2,0,1,1-2-1.93A2,2,0,0,1,74.86,34.08Z"/><path class="cls-16" d="M74.74,34.08a1.87,1.87,0,1,1-1.87-1.82A1.84,1.84,0,0,1,74.74,34.08Z"/><path class="cls-17" d="M74.63,34.08a1.76,1.76,0,1,1-1.76-1.71A1.73,1.73,0,0,1,74.63,34.08Z"/><path class="cls-18" d="M74.52,34.08a1.65,1.65,0,1,1-1.65-1.6A1.62,1.62,0,0,1,74.52,34.08Z"/><path class="cls-19" d="M74.41,34.08a1.54,1.54,0,1,1-1.54-1.49A1.51,1.51,0,0,1,74.41,34.08Z"/><path class="cls-20" d="M74.3,34.08a1.43,1.43,0,1,1-1.43-1.38A1.4,1.4,0,0,1,74.3,34.08Z"/><path class="cls-21" d="M74.18,34.08a1.31,1.31,0,1,1-1.31-1.28A1.29,1.29,0,0,1,74.18,34.08Z"/><path class="cls-22" d="M74.07,34.08a1.2,1.2,0,1,1-1.2-1.17A1.18,1.18,0,0,1,74.07,34.08Z"/><path class="cls-23" d="M74,34.08A1.09,1.09,0,1,1,72.87,33,1.07,1.07,0,0,1,74,34.08Z"/><path class="cls-24" d="M73.85,34.08a1,1,0,1,1-1-.95A1,1,0,0,1,73.85,34.08Z"/><path class="cls-25" d="M73.73,34.08a.86.86,0,1,1-.86-.84A.84.84,0,0,1,73.73,34.08Z"/><path class="cls-26" d="M73.62,34.08a.75.75,0,1,1-.75-.73A.73.73,0,0,1,73.62,34.08Z"/></g><polygon class="cls-13" points="17.07 36.18 17.07 32.18 8.67 32.18 5.67 36.18 17.07 36.18"/><polygon class="cls-27" points="16.57 35.68 6.67 35.68 8.92 32.68 16.57 32.68 16.57 35.68"/><g class="cls-15"><path class="cls-13" d="M11.18,34.51c.06-.28-.17-1-.63-.75s-.9-.15-1.12-.25-.47.4-.25.94S10.75,36.46,11.18,34.51Z"/><path class="cls-16" d="M11.11,34.49c.06-.25-.16-.91-.59-.69s-.83-.14-1-.23-.44.37-.23.87S10.71,36.3,11.11,34.49Z"/><path class="cls-17" d="M11,34.48c.05-.23-.15-.84-.55-.64s-.76-.13-.94-.2-.41.33-.22.8S10.67,36.15,11,34.48Z"/><path class="cls-18" d="M11,34.47c0-.21-.13-.77-.49-.58s-.7-.12-.87-.19-.37.3-.19.73S10.63,36,11,34.47Z"/><path class="cls-19" d="M10.89,34.46c0-.2-.12-.7-.45-.53s-.63-.11-.78-.17-.34.27-.18.66S10.58,35.83,10.89,34.46Z"/><path class="cls-20" d="M10.82,34.44c0-.17-.11-.62-.41-.47s-.56-.09-.7-.15-.3.25-.16.59S10.54,35.68,10.82,34.44Z"/><path class="cls-21" d="M10.74,34.43c0-.15-.09-.55-.35-.42s-.5-.08-.62-.13-.27.22-.14.52S10.5,35.52,10.74,34.43Z"/><path class="cls-22" d="M10.67,34.42c0-.13-.09-.48-.31-.36s-.43-.08-.54-.12-.23.19-.12.45S10.46,35.36,10.67,34.42Z"/><path class="cls-23" d="M10.59,34.41c0-.12-.07-.41-.26-.31S10,34,9.88,34s-.2.16-.11.38S10.42,35.21,10.59,34.41Z"/><path class="cls-24" d="M10.52,34.39c0-.09-.06-.33-.21-.25s-.3,0-.38-.08-.16.13-.08.32S10.38,35.05,10.52,34.39Z"/><path class="cls-25" d="M10.45,34.38c0-.07,0-.26-.17-.2s-.24,0-.29-.06-.13.1-.07.25S10.34,34.89,10.45,34.38Z"/><path class="cls-26" d="M10.37,34.37s0-.19-.12-.14-.17,0-.21,0-.09.07,0,.18S10.29,34.74,10.37,34.37Z"/></g><g class="cls-15"><path class="cls-13" d="M12.25,34.08a2,2,0,1,0,2-1.93A2,2,0,0,0,12.25,34.08Z"/><path class="cls-16" d="M12.37,34.08a1.87,1.87,0,1,0,1.87-1.82A1.84,1.84,0,0,0,12.37,34.08Z"/><path class="cls-17" d="M12.48,34.08a1.76,1.76,0,1,0,1.76-1.71A1.73,1.73,0,0,0,12.48,34.08Z"/><path class="cls-18" d="M12.59,34.08a1.65,1.65,0,1,0,1.65-1.6A1.62,1.62,0,0,0,12.59,34.08Z"/><path class="cls-19" d="M12.7,34.08a1.54,1.54,0,1,0,1.54-1.49A1.51,1.51,0,0,0,12.7,34.08Z"/><path class="cls-20" d="M12.81,34.08a1.43,1.43,0,1,0,1.43-1.38A1.4,1.4,0,0,0,12.81,34.08Z"/><path class="cls-21" d="M12.93,34.08a1.31,1.31,0,1,0,1.31-1.28A1.29,1.29,0,0,0,12.93,34.08Z"/><path class="cls-22" d="M13,34.08a1.2,1.2,0,1,0,1.2-1.17A1.18,1.18,0,0,0,13,34.08Z"/><path class="cls-23" d="M13.15,34.08A1.09,1.09,0,1,0,14.24,33,1.07,1.07,0,0,0,13.15,34.08Z"/><path class="cls-24" d="M13.26,34.08a1,1,0,1,0,1-.95A1,1,0,0,0,13.26,34.08Z"/><path class="cls-25" d="M13.38,34.08a.86.86,0,1,0,.86-.84A.84.84,0,0,0,13.38,34.08Z"/><path class="cls-26" d="M13.49,34.08a.75.75,0,1,0,.75-.73A.73.73,0,0,0,13.49,34.08Z"/></g><rect class="cls-28" x="17.97" y="19.09" width="51.59" height="5.95"/><rect class="cls-29" x="17.97" y="20.67" width="51.59" height="2.77"/><rect class="cls-11" x="17.97" y="19.09" width="51.59" height="1.59"/><rect class="cls-28" x="26.66" y="20.67" width="1.27" height="8.86"/><rect class="cls-28" x="60.03" y="20.67" width="1.27" height="8.86"/><polygon class="cls-29" points="29.02 25.03 27.93 25.03 27.93 29.53 27.93 29.53 29.02 25.03"/><polygon class="cls-29" points="59.04 25.03 60.12 25.03 60.12 29.53 60.12 29.53 59.04 25.03"/><path class="cls-30" d="M43.66,9.79c-5.74,0-10.39,1-10.39,2.33v4.26H54.05V12.12C54.05,10.83,49.4,9.79,43.66,9.79Z"/><rect class="cls-29" x="33.27" y="14.93" width="20.78" height="0.36"/><rect class="cls-29" x="33.27" y="14.01" width="20.78" height="0.36"/><rect class="cls-29" x="33.27" y="13.09" width="20.78" height="0.36"/><rect class="cls-29" x="33.27" y="12.17" width="20.78" height="0.36"/><rect class="cls-29" x="32.14" y="34.93" width="23.44" height="0.76"/><rect class="cls-29" x="21.77" y="31.07" width="44.11" height="0.51"/><path class="cls-9" d="M35.3,48.09c-2.87,0-5.2,1.85-5.2,4.13H40.51C40.51,49.94,38.18,48.09,35.3,48.09Z"/><path class="cls-12" d="M38.18,52.22a2.88,2.88,0,1,1-2.88-2.88A2.88,2.88,0,0,1,38.18,52.22Z"/><path class="cls-30" d="M35.3,54.09a1.88,1.88,0,1,1,1.88-1.87A1.87,1.87,0,0,1,35.3,54.09Z"/><path class="cls-31" d="M35.3,50.15a2.88,2.88,0,0,1,2.84,2.47,2.58,2.58,0,0,0,0-.4,2.88,2.88,0,1,0-5.75,0,2.58,2.58,0,0,0,0,.4A2.87,2.87,0,0,1,35.3,50.15Z"/><path class="cls-9" d="M51.64,48.09c-2.87,0-5.21,1.85-5.21,4.13H56.85C56.85,49.94,54.52,48.09,51.64,48.09Z"/><path class="cls-12" d="M54.51,52.22a2.87,2.87,0,1,1-2.87-2.88A2.87,2.87,0,0,1,54.51,52.22Z"/><path class="cls-30" d="M51.64,54.09a1.88,1.88,0,1,1,1.87-1.87A1.87,1.87,0,0,1,51.64,54.09Z"/><path class="cls-31" d="M51.64,50.15a2.86,2.86,0,0,1,2.83,2.47,2.58,2.58,0,0,0,0-.4,2.87,2.87,0,1,0-5.74,0,2.58,2.58,0,0,0,0,.4A2.87,2.87,0,0,1,51.64,50.15Z"/></g></g></svg>